<?xml version="1.0" standalone="no"?><!DOCTYPE svg PUBLIC "-//W3C//DTD SVG 1.1//EN" "http://www.w3.org/Graphics/SVG/1.1/DTD/svg11.dtd"><svg t="1655348344866" class="icon" viewBox="0 0 1024 1024" version="1.1" xmlns="http://www.w3.org/2000/svg" p-id="3922" xmlns:xlink="http://www.w3.org/1999/xlink" width="200" height="200"><defs><style type="text/css">@font-face { font-family: feedback-iconfont; src: url("//at.alicdn.com/t/font_1031158_u69w8yhxdu.woff2?t=1630033759944") format("woff2"), url("//at.alicdn.com/t/font_1031158_u69w8yhxdu.woff?t=1630033759944") format("woff"), url("//at.alicdn.com/t/font_1031158_u69w8yhxdu.ttf?t=1630033759944") format("truetype"); }
</style></defs><path d="M540.4 297.8C540.4 298 540.2 298 540.4 297.8l0 0.2L540.4 297.8z" p-id="3923"></path><path d="M640 332c0-86.4-30-186.4-48-267.4L592 64l-16 0-0.4 233.8c0 12.2-5.8 22.2-18 22.2-11.4 0-16-8.6-17.2-19.8-0.2-0.8 0-1.6 0-2.4L519.8 64l-16 0-18 234-0.2 2.2c-1.2 11.2-7.4 19.8-19 19.8-12.2 0-18.2-10-18.2-22.2L447.6 64l-16 0C414 146 384 245.8 384 332.2c0 51.4 29.2 96.2 73.4 116.4 22.4 10.2 22.6 20.6 22.6 20.6s-32 403.4-32 426.2c0 22.8 8 37 19 48s28.4 16.4 44.8 16.4c0.2 0 0.2 0 0.4 0 0.2 0 0.2 0 0.4 0 16.4 0 33.6-5.4 44.8-16.4 11-11 18.6-21.8 18.6-48 0-26.2-32-426.2-32-426.2s-2-10 22.8-21.2C610 428.4 640 383.6 640 332z" p-id="3924"></path></svg>