<?xml version="1.0" standalone="no"?><!DOCTYPE svg PUBLIC "-//W3C//DTD SVG 1.1//EN" "http://www.w3.org/Graphics/SVG/1.1/DTD/svg11.dtd"><svg t="1655365665211" class="icon" viewBox="0 0 1024 1024" version="1.1" xmlns="http://www.w3.org/2000/svg" p-id="17895" xmlns:xlink="http://www.w3.org/1999/xlink" width="200" height="200"><defs><style type="text/css">@font-face { font-family: feedback-iconfont; src: url("//at.alicdn.com/t/font_1031158_u69w8yhxdu.woff2?t=1630033759944") format("woff2"), url("//at.alicdn.com/t/font_1031158_u69w8yhxdu.woff?t=1630033759944") format("woff"), url("//at.alicdn.com/t/font_1031158_u69w8yhxdu.ttf?t=1630033759944") format("truetype"); }
</style></defs><path d="M417.728 294.016l-238.304 0c-38.4 0-69.824 31.424-69.824 69.824l0 509.312c0 38.4 31.424 69.824 69.824 69.824l238.304 0c38.4 0 69.824-31.424 69.824-69.824l0-509.312c0-38.4-31.424-69.824-69.824-69.824zM298.56 928.512c-17.92 0-32.448-14.528-32.448-32.448s14.528-32.448 32.448-32.448 32.448 14.528 32.448 32.448c0 17.92-14.528 32.448-32.448 32.448zM450.496 830.016c0 9.856-8.064 17.92-17.92 17.92l-268 0c-9.856 0-17.92-8.064-17.92-17.92l0-423.04c0-9.856 8.064-17.92 17.92-17.92l268 0c9.856 0 17.92 8.064 17.92 17.92l0 423.04z" p-id="17896"></path><path d="M914.304 150.272c0-38.336-31.072-69.408-69.44-69.408l-472.352 0.032c-38.336 0-69.408 31.104-69.408 69.44l0 106.432 44.48 0 0-60.064c0-12.256 9.952-22.208 22.208-22.208l477.888 0c12.256 0 22.208 9.952 22.208 22.208l0 616.32c0 12.256-9.952 22.208-22.208 22.208l-322.464 0 0 34.656c0 28.576-11.744 54.496-30.624 73.28l350.368-0.032c38.336 0 69.408-31.104 69.408-69.44l-0.096-723.456zM608.768 918.4c-17.312 0-31.328-14.048-31.328-31.328s14.016-31.328 31.328-31.328 31.328 14.016 31.328 31.328c0 17.312-14.048 31.328-31.328 31.328z" p-id="17897"></path></svg>