<svg width="6" height="6" viewBox="0 0 6 6" fill="none" xmlns="http://www.w3.org/2000/svg">
<path d="M0.196 1.666H0C0.121333 1.274 0.228667 0.970667 0.322 0.756001C0.415333 0.532 0.541333 0.368667 0.7 0.266C0.868 0.163333 1.092 0.0980004 1.372 0.0700002C1.66133 0.0420003 2.058 0.0186667 2.562 0H5.698V0.784H4.438C4.242 1.92267 4.144 2.80467 4.144 3.43C4.144 4.31667 4.40533 4.76 4.928 4.76C5.17067 4.76 5.432 4.59667 5.712 4.27L5.838 4.354C5.726 4.606 5.62333 4.81133 5.53 4.97C5.43667 5.11933 5.348 5.24067 5.264 5.334C5.18 5.418 5.096 5.47867 5.012 5.516C4.928 5.544 4.83933 5.558 4.746 5.558C4.018 5.558 3.654 4.942 3.654 3.71C3.654 3.05667 3.80333 2.08133 4.102 0.784H2.352C2.23067 2.044 2.128 3.00067 2.044 3.654C1.96933 4.30733 1.89467 4.73667 1.82 4.942C1.75467 5.138 1.66133 5.292 1.54 5.404C1.41867 5.50667 1.288 5.558 1.148 5.558C1.01733 5.558 0.896 5.51133 0.784 5.418C0.681333 5.32467 0.63 5.20333 0.63 5.054C0.63 4.90467 0.742 4.704 0.966 4.452C1.19933 4.20933 1.37667 3.91533 1.498 3.57C1.56333 3.402 1.638 3.08933 1.722 2.632C1.81533 2.16533 1.91333 1.54933 2.016 0.784H1.652C1.204 0.784 0.877333 0.868 0.672 1.036C0.466667 1.19467 0.308 1.40467 0.196 1.666Z" fill="black"/>
</svg>
