<svg width="11" height="11" viewBox="0 0 11 11" fill="none" xmlns="http://www.w3.org/2000/svg">
<path d="M5.54 1.624C6.004 1.648 6.988 1.48 8.492 1.12C8.764 1.04 8.988 1 9.164 1C9.34 1 9.484 1.04 9.596 1.12C9.716 1.192 9.776 1.26 9.776 1.324C9.776 1.388 9.724 1.448 9.62 1.504C9.524 1.56 8.984 1.652 8 1.78C7.016 1.908 6.412 1.972 6.188 1.972C5.972 1.972 5.816 1.952 5.72 1.912C5.544 3.728 5.24 5.296 4.808 6.616C4.384 7.936 3.864 8.896 3.248 9.496C2.632 10.096 2.236 10.396 2.06 10.396C2.02 10.396 2 10.38 2 10.348C2 10.316 2.036 10.268 2.108 10.204C2.66 9.676 3.184 8.908 3.68 7.9C4.176 6.884 4.52 5.804 4.712 4.66C4.912 3.508 5.012 2.76 5.012 2.416C5.012 2.064 4.984 1.844 4.928 1.756C4.872 1.668 4.844 1.6 4.844 1.552C4.844 1.504 4.896 1.48 5 1.48C5.112 1.48 5.292 1.528 5.54 1.624ZM7.7 8.788C8.316 8.724 8.768 8.664 9.056 8.608C9.344 8.552 9.596 8.524 9.812 8.524C10.196 8.524 10.472 8.588 10.64 8.716C10.816 8.844 10.904 8.964 10.904 9.076C10.904 9.252 10.696 9.32 10.28 9.28C9.608 9.2 8.984 9.16 8.408 9.16C7.832 9.16 7.276 9.204 6.74 9.292C6.204 9.388 5.836 9.464 5.636 9.52C5.444 9.584 5.28 9.616 5.144 9.616C5.016 9.616 4.884 9.56 4.748 9.448C4.612 9.336 4.544 9.256 4.544 9.208C4.544 9.128 4.652 9.084 4.868 9.076C5.084 9.068 5.864 8.992 7.208 8.848L7.256 7.624C6.976 7.656 6.74 7.672 6.548 7.672C6.364 7.672 6.188 7.652 6.02 7.612C5.86 7.564 5.78 7.512 5.78 7.456C5.78 7.4 5.852 7.36 5.996 7.336C6.316 7.296 6.74 7.224 7.268 7.12C7.284 6.512 7.212 6.048 7.052 5.728C6.396 5.896 6.008 5.98 5.888 5.98C5.768 5.98 5.644 5.948 5.516 5.884C5.388 5.82 5.324 5.756 5.324 5.692C5.324 5.628 5.416 5.584 5.6 5.56C6.328 5.472 6.912 5.384 7.352 5.296V4.12C7.096 4.16 6.884 4.18 6.716 4.18C6.548 4.18 6.412 4.156 6.308 4.108C6.212 4.06 6.164 4.016 6.164 3.976C6.164 3.928 6.228 3.892 6.356 3.868C6.78 3.796 7.112 3.724 7.352 3.652C7.344 3.252 7.328 2.992 7.304 2.872C7.288 2.744 7.236 2.62 7.148 2.5C7.1 2.428 7.076 2.364 7.076 2.308C7.076 2.252 7.14 2.224 7.268 2.224C7.404 2.224 7.58 2.26 7.796 2.332C8.012 2.404 8.12 2.508 8.12 2.644C8.12 2.684 8.108 2.732 8.084 2.788C8.036 2.94 8 3.16 7.976 3.448C8.056 3.424 8.204 3.376 8.42 3.304C8.644 3.224 8.804 3.184 8.9 3.184C9.004 3.184 9.116 3.204 9.236 3.244C9.356 3.276 9.416 3.324 9.416 3.388C9.416 3.604 8.92 3.82 7.928 4.036L7.844 5.2C8.156 5.136 8.468 5.06 8.78 4.972C9.092 4.884 9.352 4.84 9.56 4.84C9.768 4.84 9.948 4.884 10.1 4.972C10.26 5.06 10.34 5.144 10.34 5.224C10.34 5.296 10.304 5.352 10.232 5.392C10.168 5.432 10.08 5.452 9.968 5.452H9.656C9.408 5.452 9.036 5.476 8.54 5.524C8.044 5.564 7.644 5.608 7.34 5.656C7.54 5.768 7.688 5.868 7.784 5.956C7.888 6.044 7.94 6.136 7.94 6.232L7.808 7C7.936 6.984 8.096 6.952 8.288 6.904C8.48 6.856 8.648 6.832 8.792 6.832C8.936 6.832 9.072 6.876 9.2 6.964C9.336 7.044 9.404 7.108 9.404 7.156C9.404 7.204 9.372 7.244 9.308 7.276C9.252 7.3 9.06 7.344 8.732 7.408C8.404 7.464 8.084 7.512 7.772 7.552L7.7 8.788Z" fill="black"/>
<path d="M2.264 3.79201C1.76 4.48801 1.3 5.00001 0.884004 5.32801C0.468004 5.64801 0.208004 5.80801 0.104004 5.80801C0.0480043 5.80801 0.0200043 5.78801 0.0200043 5.74801C0.0200043 5.70001 0.0520043 5.64401 0.116004 5.58001C0.900004 4.74801 1.54 3.89201 2.036 3.01201C2.532 2.12401 2.78 1.46801 2.78 1.04401C2.78 0.964009 2.772 0.896009 2.756 0.840009C2.748 0.784009 2.744 0.740009 2.744 0.708009C2.744 0.596009 2.804 0.540009 2.924 0.540009C3.044 0.540009 3.224 0.636009 3.464 0.828008C3.704 1.02001 3.824 1.16401 3.824 1.26001C3.824 1.35601 3.788 1.44001 3.716 1.51201C3.652 1.58401 3.536 1.76001 3.368 2.04001L2.564 3.33601C2.772 3.53601 2.876 3.77201 2.876 4.04401C2.876 4.10801 2.868 4.19201 2.852 4.29601C2.844 4.39201 2.84 4.53201 2.84 4.71601L2.852 5.88001C2.852 6.88001 2.832 7.59201 2.792 8.01601C2.76 8.43201 2.716 8.78001 2.66 9.06001C2.612 9.34801 2.56 9.52401 2.504 9.58801C2.456 9.66001 2.404 9.69601 2.348 9.69601C2.292 9.69601 2.244 9.67201 2.204 9.62401C2.172 9.57601 2.12 9.44001 2.048 9.21601C1.976 9.00001 1.94 8.80801 1.94 8.64001C1.94 8.47201 1.984 8.26001 2.072 8.00401C2.168 7.74001 2.236 7.22801 2.276 6.46801C2.324 5.70801 2.348 5.12401 2.348 4.71601C2.348 4.30801 2.32 4.00001 2.264 3.79201Z" fill="black"/>
</svg>
