<svg width="14" height="13" viewBox="0 0 14 13" fill="none" xmlns="http://www.w3.org/2000/svg">
<path d="M5.53799 0.0880127C6.07932 0.0880127 6.48999 0.195346 6.76999 0.410012C7.05932 0.615345 7.20399 0.886012 7.20399 1.22201C7.20399 1.36201 7.16199 1.47868 7.07799 1.57201C6.99399 1.65601 6.88665 1.69801 6.75599 1.69801C6.51332 1.69801 6.17732 1.47401 5.74799 1.02601C5.31865 0.578013 5.10399 0.307346 5.10399 0.214012C5.10399 0.130013 5.24865 0.0880127 5.53799 0.0880127ZM7.37199 5.78601C8.01599 6.47668 8.58999 7.02735 9.09399 7.43801C9.59799 7.83935 10.0973 8.16135 10.592 8.40401C11.096 8.63735 11.7353 8.86601 12.51 9.09001C12.8647 9.19268 13.042 9.29068 13.042 9.38401C13.042 9.42135 12.986 9.45868 12.874 9.49601C12.762 9.53335 12.44 9.57535 11.908 9.62201C11.376 9.65935 10.9653 9.67801 10.676 9.67801C10.3867 9.67801 10.158 9.65001 9.98999 9.59401C9.83132 9.53801 9.67732 9.43535 9.52799 9.28601C9.38799 9.13668 9.08465 8.76801 8.61799 8.18001C8.16065 7.59201 7.77799 7.07868 7.46999 6.64001C7.17132 6.19201 6.85865 5.75801 6.53199 5.33801L6.71399 9.76201C6.71399 10.462 6.59732 11.0127 6.36399 11.414C6.13065 11.8153 5.95799 12.016 5.84599 12.016C5.74332 12.016 5.64999 11.9273 5.56599 11.75C5.48199 11.582 5.32332 11.358 5.08999 11.078C4.86599 10.8073 4.68399 10.6113 4.54399 10.49C4.41332 10.3687 4.34799 10.2847 4.34799 10.238C4.34799 10.1913 4.38532 10.168 4.45999 10.168C4.54399 10.168 4.68399 10.1867 4.87999 10.224C5.07599 10.2707 5.24399 10.294 5.38399 10.294C5.52399 10.294 5.62199 10.2333 5.67799 10.112C5.73399 10 5.79465 9.56135 5.85999 8.79601C5.93465 8.03068 5.97199 7.27935 5.97199 6.54201C5.97199 5.80468 5.95799 5.16068 5.92999 4.61001C5.91132 4.05935 5.89265 3.76535 5.87399 3.72801C5.85532 3.68135 5.81332 3.65801 5.74799 3.65801C5.68265 3.65801 5.52399 3.68135 5.27199 3.72801C5.01999 3.76535 4.70732 3.78401 4.33399 3.78401C3.96065 3.78401 3.71332 3.75601 3.59199 3.70001C3.47999 3.63468 3.42399 3.56935 3.42399 3.50401C3.42399 3.43868 3.48932 3.40135 3.61999 3.39201C4.01199 3.36401 4.40399 3.29401 4.79599 3.18201C5.19732 3.06068 5.48665 2.93468 5.66399 2.80401C5.84132 2.67335 5.99065 2.60801 6.11199 2.60801C6.23332 2.60801 6.41532 2.66868 6.65799 2.79001C6.90999 2.91135 7.03599 3.02801 7.03599 3.14001C7.03599 3.24268 6.97065 3.35935 6.83999 3.49001C6.64399 3.71401 6.53665 4.11068 6.51799 4.68001C6.80732 5.07201 7.02199 5.35668 7.16199 5.53401C7.88999 4.98335 8.41732 4.48401 8.74399 4.03601C9.07999 3.57868 9.24799 3.22868 9.24799 2.98601C9.24799 2.74335 9.31799 2.62201 9.45799 2.62201C9.59799 2.62201 9.81732 2.74335 10.116 2.98601C10.4147 3.22868 10.564 3.41535 10.564 3.54601C10.564 3.67668 10.4893 3.78401 10.34 3.86801C9.93865 4.10135 8.94932 4.74068 7.37199 5.78601ZM5.13199 5.85601C5.13199 5.93068 5.05732 6.03801 4.90799 6.17801C4.76799 6.30868 4.61399 6.54668 4.44599 6.89201C4.27799 7.23735 3.96999 7.69468 3.52199 8.26401C3.08332 8.82401 2.53732 9.29535 1.88399 9.67801C1.23999 10.0607 0.78732 10.252 0.525986 10.252C0.432653 10.252 0.385986 10.2147 0.385986 10.14C0.385986 10.0747 0.469986 9.99068 0.637986 9.88801C1.05799 9.63601 1.53399 9.27201 2.06599 8.79601C2.60732 8.32001 3.04599 7.76935 3.38199 7.14401C3.71799 6.51868 3.88599 6.15468 3.88599 6.05201C3.88599 6.00535 3.84399 5.98201 3.75999 5.98201C3.68532 5.98201 3.43332 6.03801 3.00399 6.15001C2.58399 6.25268 2.26199 6.34135 2.03799 6.41601C1.81399 6.48135 1.64132 6.51401 1.51999 6.51401C1.40799 6.51401 1.25399 6.43935 1.05799 6.29001C0.861986 6.14068 0.763986 6.02401 0.763986 5.94001C0.763986 5.88401 0.78732 5.85135 0.833986 5.84201C0.889986 5.82335 1.04865 5.81401 1.30999 5.81401C1.79532 5.81401 2.29465 5.76735 2.80799 5.67401C3.32132 5.58068 3.68999 5.46868 3.91399 5.33801C4.09132 5.23535 4.23132 5.18401 4.33399 5.18401C4.44599 5.18401 4.60465 5.26801 4.80999 5.43601C5.02465 5.60401 5.13199 5.74401 5.13199 5.85601Z" fill="black"/>
</svg>
